{"accessors":[{"bufferView":0,"componentType":5123,"count":2412,"max":[545],"min":[0],"type":"SCALAR"},{"bufferView":1,"componentType":5126,"count":546,"max":[0.19602495431900024,2.2081964015960693,0.19597108662128448],"min":[-0.1958095133304596,0.0,-0.19597108662128448],"type":"VEC3"},{"bufferView":2,"componentType":5126,"count":546,"max":[1.0,1.0,0.9997252225875854],"min":[-0.9989009499549866,-1.0,-0.9997251629829407],"type":"VEC3"},{"bufferView":3,"componentType":5126,"count":546,"max":[0.9888059496879578,1.0],"min":[-0.011194050312042236,0.0],"type":"VEC2"},{"bufferView":4,"componentType":5123,"count":1872,"max":[425],"min":[0],"type":"SCALAR"},{"bufferView":5,"componentType":5126,"count":426,"max":[0.10602495819330215,2.5615077018737793,0.10602495819330215],"min":[-0.10602495819330215,0.0,-0.10602495819330215],"type":"VEC3"},{"bufferView":6,"componentType":5126,"count":426,"max":[1.0,1.0,1.0],"min":[-1.0,-1.0,-1.0],"type":"VEC3"},{"bufferView":7,"componentType":5126,"count":426,"max":[0.9807692170143127,1.0],"min":[-0.019230782985687256,0.0],"type":"VEC2"},{"bufferView":8,"componentType":5123,"count":1692,"max":[385],"min":[0],"type":"SCALAR"},{"bufferView":9,"componentType":5126,"count":386,"max":[0.046024952083826065,2.857793092727661,0.045999251306056976],"min":[-0.0459221750497818,0.0,-0.045999251306056976],"type":"VEC3"},{"bufferView":10,"componentType":5126,"count":386,"max":[1.0,1.0,0.9994415640830994],"min":[-0.99776691198349,-1.0,-0.9994415640830994],"type":"VEC3"},{"bufferView":11,"componentType":5126,"count":386,"max":[0.9840425252914429,1.0],"min":[-0.01595747470855713,0.0],"type":"VEC2"}],"asset":{"generator":"Soft8Soft Verge3D for 3ds Max plug-in","version":"2.0"},"bufferViews":[{"buffer":0,"byteLength":4824,"byteOffset":0,"target":34963},{"buffer":0,"byteLength":6552,"byteOffset":4824,"target":34962},{"buffer":0,"byteLength":6552,"byteOffset":11376,"target":34962},{"buffer":0,"byteLength":4368,"byteOffset":17928,"target":34962},{"buffer":0,"byteLength":3744,"byteOffset":22296,"target":34963},{"buffer":0,"byteLength":5112,"byteOffset":26040,"target":34962},{"buffer":0,"byteLength":5112,"byteOffset":31152,"target":34962},{"buffer":0,"byteLength":3408,"byteOffset":36264,"target":34962},{"buffer":0,"byteLength":3384,"byteOffset":39672,"target":34963},{"buffer":0,"byteLength":4632,"byteOffset":43056,"target":34962},{"buffer":0,"byteLength":4632,"byteOffset":47688,"target":34962},{"buffer":0,"byteLength":3088,"byteOffset":52320,"target":34962}],"buffers":[{"byteLength":55408,"uri":"my_awelsome_app.bin"}],"cameras":[{"extensions":{"S8S_v3d_camera":{"controls":"ORBIT","enablePan":true,"moveSpeed":1.0,"orbitMaxDistance":5000.0,"orbitMaxPolarAngle":3.141592653589793,"orbitMaxZoom":100.0,"orbitMinDistance":0.0,"orbitMinPolarAngle":0.0,"orbitMinZoom":0.009999999776482582,"orbitTarget":1,"rotateSpeed":1.0,"viewportFitInitialAspect":1.3333333333333333,"viewportFitType":"VERTICAL"}},"name":"Camera001","perspective":{"aspectRatio":1.3333333333333333,"yfov":0.7853981633974483,"zfar":1000.0,"znear":1.0},"type":"perspective"}],"extensions":{"S8S_v3d_clipping_planes":{},"S8S_v3d_curves":{},"S8S_v3d_light_probes":{},"S8S_v3d_lights":{"lights":[{"color":[0.8509803921568627,0.8509803921568627,0.8509803921568627],"intensity":1,"name":"__AMBIENT__","profile":"max","type":"ambient"}]}},"extensionsUsed":["S8S_v3d_texture","S8S_v3d_materials","S8S_v3d_camera","S8S_v3d_lights","S8S_v3d_node","S8S_v3d_light_probes","S8S_v3d_clipping_planes","S8S_v3d_curves","S8S_v3d_scene"],"images":[{"uri":"Zbyg-Studio_0032_2k.hdr"}],"materials":[{"doubleSided":false,"extensions":{"S8S_v3d_materials":{"gtaoVisible":true,"nodeGraph":{"edges":[{"fromNode":1,"fromOutput":0,"toInput":0,"toNode":0},{"fromNode":1,"fromOutput":1,"toInput":1,"toNode":0}],"nodes":[{"inputs":[[1,1,1,1]],"is_active_output":true,"name":"MaxOutput","outputs":[],"type":"OUTPUT_MX"},{"brdfCurve":5.0,"brdfHigh":1.0,"brdfLow":0.05000000074505806,"brdfMode":true,"emitLuminance":1500.0,"inputFactors":[0,0,0,0,0,0,0,0,0,0,0,0,0,0,0,0,0,0,0,0,0,0,0,0,0],"inputs":[0.8799999952316284,[0.19631901161343443,0.19631901161343443,0.19631901161343443,1.0],1.0,[1.0,1.0,1.0,1.0],0.0,0.20999999344348907,0.0,1.0,0.0,0.0,[1.0,1.0,1.0,1.0],0.0,1.5199999809265137,0.0,[1.0,1.0,1.0,1.0],1.0,1.0,[0.0,0.0,0.0,1.0],0.0,[1.0,1.0,1.0,1.0],0.0,[0,0,0],[0,0,0],0,1],"is_active_output":false,"name":"Material #0","outputs":[[0,0,0,0]],"roughnessInv":false,"thinWalled":false,"transRoughnessInv":false,"transRoughnessLock":true,"type":"PHYSICAL_MX"}]},"profile":"max"}},"name":"Material #0"},{"doubleSided":false,"extensions":{"S8S_v3d_materials":{"gtaoVisible":true,"nodeGraph":{"edges":[{"fromNode":1,"fromOutput":0,"toInput":0,"toNode":0},{"fromNode":1,"fromOutput":1,"toInput":1,"toNode":0}],"nodes":[{"inputs":[[1,1,1,1]],"is_active_output":true,"name":"MaxOutput","outputs":[],"type":"OUTPUT_MX"},{"brdfCurve":5.0,"brdfHigh":1.0,"brdfLow":0.05000000074505806,"brdfMode":true,"emitLuminance":1500.0,"inputFactors":[0,0,0,0,0,0,0,0,0,0,0,0,0,0,0,0,0,0,0,0,0,0,0,0,0],"inputs":[0.7400000095367432,[0.6319018195657169,0.6319018195657169,0.6319018195657169,1.0],1.0,[1.0,1.0,1.0,1.0],0.0,1.0,0.0,1.0,0.0,0.0,[1.0,1.0,1.0,1.0],0.0,1.5199999809265137,0.0,[1.0,1.0,1.0,1.0],1.0,1.0,[0.0,0.0,0.0,1.0],0.0,[1.0,1.0,1.0,1.0],0.0,[0,0,0],[0,0,0],0,1],"is_active_output":false,"name":"Material #1","outputs":[[0,0,0,0]],"roughnessInv":false,"thinWalled":false,"transRoughnessInv":false,"transRoughnessLock":true,"type":"PHYSICAL_MX"}]},"profile":"max"}},"name":"Material #1"},{"doubleSided":false,"extensions":{"S8S_v3d_materials":{"gtaoVisible":true,"nodeGraph":{"edges":[{"fromNode":1,"fromOutput":0,"toInput":0,"toNode":0},{"fromNode":1,"fromOutput":1,"toInput":1,"toNode":0}],"nodes":[{"inputs":[[1,1,1,1]],"is_active_output":true,"name":"MaxOutput","outputs":[],"type":"OUTPUT_MX"},{"brdfCurve":5.0,"brdfHigh":1.0,"brdfLow":0.05000000074505806,"brdfMode":true,"emitLuminance":1500.0,"inputFactors":[0,0,0,0,0,0,0,0,0,0,0,0,0,0,0,0,0,0,0,0,0,0,0,0,0],"inputs":[0.6700000166893005,[0.7055214676202513,0.36358160879097734,0.0,1.0],1.0,[1.0,1.0,1.0,1.0],0.0,1.0,0.0,1.0,0.0,0.0,[1.0,1.0,1.0,1.0],0.0,1.5199999809265137,0.0,[1.0,1.0,1.0,1.0],1.0,1.0,[0.0,0.0,0.0,1.0],0.0,[1.0,1.0,1.0,1.0],0.0,[0,0,0],[0,0,0],0,1],"is_active_output":false,"name":"Material #2","outputs":[[0,0,0,0]],"roughnessInv":false,"thinWalled":false,"transRoughnessInv":false,"transRoughnessLock":true,"type":"PHYSICAL_MX"}]},"profile":"max"}},"name":"Material #2"},{"extensions":{"S8S_v3d_materials":{"nodeGraph":{"edges":[{"fromNode":1,"fromOutput":0,"toInput":0,"toNode":0},{"fromNode":1,"fromOutput":1,"toInput":1,"toNode":0}],"nodes":[{"inputs":[[1,1,1,1]],"is_active_output":true,"name":"MaxOutput","outputs":[],"type":"OUTPUT_MX"},{"alphaAsMono":false,"alphaAsRGB":false,"alphaSource":"FILE","axis":"XY","clampToEdgeNoExtend":[false,false],"inputs":[0.0,0.0,1.0,1.0,0.0],"is_active_output":false,"mapping":"SPHERICAL_ENVIRONMENT","name":"\u8d34\u56fe #0","outputs":[[0,0,0,0]],"texture":0,"type":"BITMAP_ENV_MX","uvIndex":0}]},"profile":"max"}},"name":"Verge3D_Environment"}],"meshes":[{"name":"Cylinder001","primitives":[{"attributes":{"NORMAL":2,"POSITION":1,"TEXCOORD_0":3},"indices":0,"material":0,"mode":4}]},{"name":"Cylinder002","primitives":[{"attributes":{"NORMAL":6,"POSITION":5,"TEXCOORD_0":7},"indices":4,"material":1,"mode":4}]},{"name":"Cylinder003","primitives":[{"attributes":{"NORMAL":10,"POSITION":9,"TEXCOORD_0":11},"indices":8,"material":2,"mode":4}]}],"nodes":[{"camera":0,"extensions":{"S8S_v3d_node":{"hidden":false}},"name":"Camera001","rotation":[0.08900540322065353,0.8938865661621094,0.20462647080421448,-0.38880953192710876],"scale":[1.0,0.9999999403953552,1.0],"translation":[-5.690950393676758,5.078929901123047,-5.307329177856445]},{"extensions":{"S8S_v3d_node":{"hidden":false}},"name":"Camera001.Target","translation":[-0.014039196074008942,1.3294895887374878,-0.016250258311629295]},{"extensions":{"S8S_v3d_node":{"frustumCulling":true,"hidden":false,"hidpiCompositing":false,"renderOrder":0,"useCastShadows":true,"useShadows":true}},"mesh":0,"name":"Cylinder001","translation":[-0.38917025923728943,0.0,-0.32823070883750916]},{"extensions":{"S8S_v3d_node":{"frustumCulling":true,"hidden":false,"hidpiCompositing":false,"renderOrder":0,"useCastShadows":true,"useShadows":true}},"mesh":1,"name":"Cylinder002","translation":[-0.38917025923728943,0.0,-0.32823070883750916]},{"extensions":{"S8S_v3d_node":{"frustumCulling":true,"hidden":false,"hidpiCompositing":false,"renderOrder":0,"useCastShadows":true,"useShadows":true}},"mesh":2,"name":"Cylinder003","translation":[-0.38917025923728943,0.0,-0.32823070883750916]},{"extensions":{"S8S_v3d_lights":{"light":0}},"name":"__AMBIENT__","rotation":[-0.7071068286895752,-0.0,-0.0,0.7071067690849304],"scale":[1.0,1.0,1.0],"translation":[0.0,0.0,0.0]}],"samplers":[{}],"scene":0,"scenes":[{"extensions":{"S8S_v3d_scene":{"aaMethod":"AUTO","iblEnvironmentMode":"PMREM","physicallyCorrectLights":true,"pmremMaxTileSize":256,"shadowMap":{"esmDistanceScale":0.30000001192092896,"renderReverseSided":false,"renderSingleSided":true,"type":"PCFPOISSON"},"unitsScaleFactor":1.0,"worldMaterial":3}},"extras":{"animFrameRate":30,"coordSystem":"Z_UP_RIGHT"},"name":"Scene","nodes":[0,1,2,3,4,5]}],"textures":[{"extensions":{"S8S_v3d_texture":{"colorSpace":"linear","source":0}},"name":"\u8d34\u56fe #0","sampler":0}]}
